<?xml version="1.0" encoding="UTF-8"?>
<svg width="100%" height="100%" viewBox="0 0 300 200" xmlns="http://www.w3.org/2000/svg">
<path d="M0 0 C1.13451347 -0.01879211 1.13451347 -0.01879211 2.29194641 -0.03796387 C18.7950294 -0.25839488 34.28868191 -0.21413991 50.05859375 5.2734375 C50.72858398 5.49273926 51.39857422 5.71204102 52.08886719 5.93798828 C83.79022605 16.47091861 109.23731825 41.34676381 124.01953125 70.828125 C127.11029642 77.324215 129.40149972 84.1227325 131.39575195 91.02758789 C131.84718839 92.55715098 132.33986692 94.07500239 132.86791992 95.57983398 C135.84356058 104.74962923 135.65183107 114.04436914 135.62109375 123.5859375 C135.62086716 124.92011719 135.62086716 124.92011719 135.62063599 126.28125 C135.57348697 140.38340881 134.34601647 153.06800446 129.05859375 166.2734375 C128.6416626 167.36785156 128.6416626 167.36785156 128.21630859 168.484375 C122.69772622 182.81264512 115.21376451 195.71755354 105.05859375 207.2734375 C104.02992188 208.51867187 104.02992188 208.51867187 102.98046875 209.7890625 C85.02509763 230.9364996 56.08619438 246.33297607 28.49591064 249.57452393 C22.41368917 250.04008386 16.3421191 250.03843052 10.24609375 249.9609375 C8.87185242 249.95371674 8.87185242 249.95371674 7.46984863 249.9463501 C-6.74041315 249.84447221 -19.64049389 248.60997377 -32.94140625 243.2734375 C-34.26007455 242.7881319 -35.57907012 242.30371433 -36.8984375 241.8203125 C-66.77358829 230.03856289 -92.05700763 205.30800078 -104.95068359 175.97753906 C-107.21478418 170.49315665 -109.11718054 164.916603 -110.94140625 159.2734375 C-111.16731445 158.62987305 -111.39322266 157.98630859 -111.62597656 157.32324219 C-118.97373068 136.07006092 -116.94930111 108.2459356 -109.94140625 87.2734375 C-109.71678711 86.5613916 -109.49216797 85.8493457 -109.26074219 85.11572266 C-99.80858352 55.4728175 -78.0278958 28.98022116 -50.54296875 14.3203125 C-38.75619412 8.31304571 -26.94681741 3.78544368 -13.94140625 1.2734375 C-13.03406738 1.09748047 -12.12672852 0.92152344 -11.19189453 0.74023438 C-7.4547542 0.20355026 -3.7679283 0.05693917 0 0 Z " fill="#341826" transform="translate(176.94140625,-0.2734375)"/>
<path d="M0 0 C1.13451347 -0.01879211 1.13451347 -0.01879211 2.29194641 -0.03796387 C18.7950294 -0.25839488 34.28868191 -0.21413991 50.05859375 5.2734375 C50.72858398 5.49273926 51.39857422 5.71204102 52.08886719 5.93798828 C83.79022605 16.47091861 109.23731825 41.34676381 124.01953125 70.828125 C127.11029642 77.324215 129.40149972 84.1227325 131.39575195 91.02758789 C131.84718839 92.55715098 132.33986692 94.07500239 132.86791992 95.57983398 C135.84356058 104.74962923 135.65183107 114.04436914 135.62109375 123.5859375 C135.62086716 124.92011719 135.62086716 124.92011719 135.62063599 126.28125 C135.57348697 140.38340881 134.34601647 153.06800446 129.05859375 166.2734375 C128.6416626 167.36785156 128.6416626 167.36785156 128.21630859 168.484375 C122.69772622 182.81264512 115.21376451 195.71755354 105.05859375 207.2734375 C104.02992188 208.51867187 104.02992188 208.51867187 102.98046875 209.7890625 C85.02509763 230.9364996 56.08619438 246.33297607 28.49591064 249.57452393 C22.41368917 250.04008386 16.3421191 250.03843052 10.24609375 249.9609375 C8.87185242 249.95371674 8.87185242 249.95371674 7.46984863 249.9463501 C-6.74041315 249.84447221 -19.64049389 248.60997377 -32.94140625 243.2734375 C-34.26007455 242.7881319 -35.57907012 242.30371433 -36.8984375 241.8203125 C-66.77358829 230.03856289 -92.05700763 205.30800078 -104.95068359 175.97753906 C-107.21478418 170.49315665 -109.11718054 164.916603 -110.94140625 159.2734375 C-111.16731445 158.62987305 -111.39322266 157.98630859 -111.62597656 157.32324219 C-118.97373068 136.07006092 -116.94930111 108.2459356 -109.94140625 87.2734375 C-109.71678711 86.5613916 -109.49216797 85.8493457 -109.26074219 85.11572266 C-99.80858352 55.4728175 -78.0278958 28.98022116 -50.54296875 14.3203125 C-38.75619412 8.31304571 -26.94681741 3.78544368 -13.94140625 1.2734375 C-13.03406738 1.09748047 -12.12672852 0.92152344 -11.19189453 0.74023438 C-7.4547542 0.20355026 -3.7679283 0.05693917 0 0 Z M-80.94140625 46.2734375 C-83.04219084 48.8390033 -84.97973969 51.49358054 -86.87890625 54.2109375 C-87.39324219 54.9445752 -87.90757813 55.67821289 -88.4375 56.43408203 C-95.56236887 66.83416406 -101.28329816 78.18861615 -104.94140625 90.2734375 C-105.31265625 91.37171875 -105.68390625 92.47 -106.06640625 93.6015625 C-109.06715952 103.40693114 -109.34419078 113.22577381 -109.37890625 123.3984375 C-109.38498901 124.07063324 -109.39107178 124.74282898 -109.39733887 125.43539429 C-109.56117491 153.14775445 -99.77915605 181.69887389 -80.94140625 202.2734375 C-80.235 203.10875 -79.52859375 203.9440625 -78.80078125 204.8046875 C-59.11124564 227.75220383 -29.97573387 241.80360954 0.05859375 244.2734375 C34.44987363 246.17461172 65.30545961 235.50406087 91.24609375 212.8359375 C113.05504217 192.62700763 128.22101793 164.56021183 129.37493896 134.4289856 C129.46926261 130.87681163 129.49805953 127.32677343 129.49609375 123.7734375 C129.496698 122.65026123 129.496698 122.65026123 129.49731445 121.50439453 C129.45922439 109.18685457 128.43260601 97.89801833 124.05859375 86.2734375 C123.76919922 85.50161133 123.47980469 84.72978516 123.18164062 83.93457031 C111.57508236 54.00640681 89.86219341 30.36959024 61.05859375 16.2734375 C56.78590582 14.39063766 52.48267252 12.7619126 48.05859375 11.2734375 C47.26839844 10.98984375 46.47820312 10.70625 45.6640625 10.4140625 C0.19763109 -4.76723317 -49.14263768 11.73167318 -80.94140625 46.2734375 Z " fill="#F1C748" transform="translate(176.94140625,-0.2734375)"/>
<path d="M0 0 C-0.33 1.32 -0.66 2.64 -1 4 C-4.15496506 2.99156368 -7.21911997 1.90859119 -10.27734375 0.6328125 C-38.62488168 -11.04504197 -71.55186478 -11.78846453 -100 0 C-124.92354662 11.00714995 -145.26927969 27.20673909 -159 51 C-159.35336426 51.6094043 -159.70672852 52.21880859 -160.07080078 52.84667969 C-169.41597555 69.31178226 -174.18867468 87.36713862 -174.24023438 106.22509766 C-174.24981413 108.33408005 -174.28081183 110.44203239 -174.3125 112.55078125 C-174.52672878 139.77560538 -164.43375457 167.82783085 -146 188 C-145.31679687 188.82371094 -144.63359375 189.64742187 -143.9296875 190.49609375 C-132.75370293 203.7134482 -118.39703289 212.45779861 -103 220 C-103.33 221.32 -103.66 222.64 -104 224 C-112.91882641 224 -118.90307957 219.91325261 -126 215 C-126.99257812 214.32710937 -127.98515625 213.65421875 -129.0078125 212.9609375 C-152.79720747 196.02288828 -168.1136737 172.48947669 -177 145 C-177.2259082 144.35643555 -177.45181641 143.71287109 -177.68457031 143.04980469 C-185.03232443 121.79662342 -183.00789486 93.9724981 -176 73 C-175.77538086 72.2879541 -175.55076172 71.5759082 -175.31933594 70.84228516 C-166.29720824 42.54799969 -145.51919436 15.78916234 -119.25048828 1.50488281 C-106.88199169 -4.86979104 -94.62295892 -10.81803144 -80.625 -12.1875 C-79.83754395 -12.26572998 -79.05008789 -12.34395996 -78.23876953 -12.42456055 C-51.77196972 -14.73291659 -23.36488969 -14.19677681 0 0 Z " fill="#EEC23D" transform="translate(243,14)"/>
<path d="M0 0 C19 0 19 0 24 4 C25.59006531 7.18013063 25.18417077 10.61970657 25.203125 14.11328125 C25.20882507 14.91984665 25.21452515 15.72641205 25.22039795 16.55741882 C25.22985195 18.26637458 25.23638352 19.9753486 25.24023438 21.68432617 C25.2499232 24.29183041 25.280935 26.89854078 25.3125 29.50585938 C25.31903185 31.16666199 25.32428161 32.82747024 25.328125 34.48828125 C25.3404718 35.26553055 25.3528186 36.04277985 25.36553955 36.84358215 C25.34687716 41.40756913 24.85745823 44.38382834 22 48 C15.4340948 51.2829526 7.34090518 49 0 49 C0 32.83 0 16.66 0 0 Z " fill="#FAF9FA" transform="translate(109,66)"/>
<path d="M0 0 C2.97 0 5.94 0 9 0 C9 7.92 9 15.84 9 24 C12.63 24 16.26 24 20 24 C20 16.08 20 8.16 20 0 C23.3 0 26.6 0 30 0 C30 19.8 30 39.6 30 60 C27.03 60 24.06 60 21 60 C21 51.09 21 42.18 21 33 C16.71 33 12.42 33 8 33 C8 41.58 8 50.16 8 59 C5.36 59 2.72 59 0 59 C0 39.53 0 20.06 0 0 Z " fill="#F3F2F3" transform="translate(148,124)"/>
<path d="M0 0 C1.11439453 0.00322266 2.22878906 0.00644531 3.37695312 0.00976562 C4.48748047 -0.00634766 5.59800781 -0.02246094 6.7421875 -0.0390625 C8.33836914 -0.0400293 8.33836914 -0.0400293 9.96679688 -0.04101562 C11.43234009 -0.04548706 11.43234009 -0.04548706 12.92749023 -0.05004883 C15.43945312 0.32226562 15.43945312 0.32226562 17.26318359 1.60791016 C19.29878744 4.57470348 18.7448823 8.0474861 18.62695312 11.50976562 C18.60665039 12.63415039 18.60665039 12.63415039 18.5859375 13.78125 C18.55063852 15.62856329 18.4968323 17.47550629 18.43945312 19.32226562 C15.13945312 19.32226562 11.83945313 19.32226562 8.43945312 19.32226562 C8.43945312 15.69226563 8.43945312 12.06226563 8.43945312 8.32226562 C5.13945313 8.32226562 1.83945313 8.32226562 -1.56054688 8.32226562 C-1.70716577 15.16830864 -1.70716577 15.16830864 0.78320312 21.36523438 C2.58462117 23.15437002 4.45261997 24.7419165 6.43945312 26.32226562 C7.85952381 27.56839712 9.27622229 28.81838244 10.68945312 30.07226562 C11.33398438 30.62398437 11.97851562 31.17570312 12.64257812 31.74414062 C13.23554688 32.26492187 13.82851562 32.78570312 14.43945312 33.32226562 C14.96474609 33.74523926 15.49003906 34.16821289 16.03125 34.60400391 C17.94237251 36.93591795 17.79861605 38.40490987 17.76757812 41.39257812 C17.76242188 42.37097656 17.75726563 43.349375 17.75195312 44.35742188 C17.73132813 45.37707031 17.71070313 46.39671875 17.68945312 47.44726562 C17.68429688 48.47464844 17.67914063 49.50203125 17.67382812 50.56054688 C17.59342926 58.16828949 17.59342926 58.16828949 16.43945312 59.32226562 C12.2998303 59.57527801 8.14839316 59.50749111 4.00195312 59.50976562 C2.83083984 59.52201172 1.65972656 59.53425781 0.453125 59.546875 C-0.66384766 59.54880859 -1.78082031 59.55074219 -2.93164062 59.55273438 C-3.96216553 59.55684326 -4.99269043 59.56095215 -6.05444336 59.56518555 C-8.56054688 59.32226562 -8.56054688 59.32226562 -10.56054688 57.32226562 C-10.70572431 54.41290983 -10.74685483 51.60231962 -10.68554688 48.69726562 C-10.67652344 47.89546875 -10.6675 47.09367187 -10.65820312 46.26757812 C-10.6346091 44.2856804 -10.59873752 42.30393582 -10.56054688 40.32226562 C-7.59054688 40.32226562 -4.62054688 40.32226562 -1.56054688 40.32226562 C-1.56054688 44.28226563 -1.56054688 48.24226563 -1.56054688 52.32226562 C1.73945312 52.32226562 5.03945312 52.32226562 8.43945312 52.32226562 C9.07448983 44.66962878 9.07448983 44.66962878 6.31103516 37.72363281 C3.94558504 35.18232201 1.33116541 33.01182952 -1.38476562 30.85742188 C-1.90409668 30.44218262 -2.42342773 30.02694336 -2.95849609 29.59912109 C-4.051643 28.72786869 -5.15822929 27.87328074 -6.27587891 27.03369141 C-8.83509061 24.87940387 -10.34139464 23.33287781 -11.06323242 20.00415039 C-11.22262622 17.33398753 -11.18373663 14.7439434 -11.06054688 12.07226562 C-11.05023438 11.1621875 -11.03992188 10.25210938 -11.02929688 9.31445312 C-10.81968695 0.48463502 -8.53764681 0.05695216 0 0 Z " fill="#F5F4F5" transform="translate(119.560546875,123.677734375)"/>
<path d="M0 0 C2.64 0 5.28 0 8 0 C10.31 7.92 12.62 15.84 15 24 C17.41830218 17.95424454 19.5557857 12.54678068 21.25 6.375 C21.75273437 4.56128906 21.75273437 4.56128906 22.265625 2.7109375 C22.50796875 1.81632812 22.7503125 0.92171875 23 0 C25.31 0 27.62 0 30 0 C30 16.17 30 32.34 30 49 C27.69 49 25.38 49 23 49 C22.505 39.1 22.505 39.1 22 29 C20.68 33.95 19.36 38.9 18 44 C15.525 44.495 15.525 44.495 13 45 C11.68 39.72 10.36 34.44 9 29 C8.67 35.93 8.34 42.86 8 50 C5.36 50 2.72 50 0 50 C0 33.5 0 17 0 0 Z " fill="#F4F2F3" transform="translate(235,66)"/>
<path d="M0 0 C7.59 0 15.18 0 23 0 C24 1 24 1 24.11352539 3.40844727 C24.10828857 4.45057373 24.10305176 5.4927002 24.09765625 6.56640625 C24.09443359 7.69111328 24.09121094 8.81582031 24.08789062 9.97460938 C24.07951172 11.15861328 24.07113281 12.34261719 24.0625 13.5625 C24.05798828 14.75037109 24.05347656 15.93824219 24.04882812 17.16210938 C24.03699675 20.10812226 24.02051287 23.05403681 24 26 C22.02 26.33 20.04 26.66 18 27 C18.31807617 27.83192871 18.31807617 27.83192871 18.64257812 28.68066406 C19.60189171 31.20123414 20.55102951 33.72551867 21.5 36.25 C21.83386719 37.12269531 22.16773438 37.99539062 22.51171875 38.89453125 C22.82753906 39.73886719 23.14335937 40.58320312 23.46875 41.453125 C23.90864258 42.61569824 23.90864258 42.61569824 24.35742188 43.80175781 C25 46 25 46 25 50 C22.69 50 20.38 50 18 50 C15.76905079 44.6362285 13.66924166 39.23354761 11.75 33.75 C11.41484375 32.79609375 11.0796875 31.8421875 10.734375 30.859375 C9.94837555 27.79899415 9.86967415 25.1464384 10 22 C12.31 22 14.62 22 17 22 C17 16.72 17 11.44 17 6 C14.03 6 11.06 6 8 6 C8 20.52 8 35.04 8 50 C5.36 50 2.72 50 0 50 C0 33.5 0 17 0 0 Z " fill="#F6F5F6" transform="translate(142,66)"/>
<path d="M0 0 C2.64 0 5.28 0 8 0 C10.53122346 10.15317568 12.73767885 20.35616921 14.75 30.625 C14.97260498 31.73858887 15.19520996 32.85217773 15.42456055 33.99951172 C16.47052908 39.42344742 17.2849875 44.47440899 17 50 C14.69 50 12.38 50 10 50 C9.505 45.05 9.505 45.05 9 40 C5.7 40 2.4 40 -1 40 C-1.33 43.3 -1.66 46.6 -2 50 C-4.64 50 -7.28 50 -10 50 C-8.62885425 40.32050434 -6.84504098 30.75606292 -4.91333008 21.17553711 C-4.43069073 18.77868421 -3.95436431 16.38063117 -3.47851562 13.98242188 C-3.17224575 12.45305071 -2.86561884 10.92375098 -2.55859375 9.39453125 C-2.34607216 8.32281425 -2.34607216 8.32281425 -2.1292572 7.22944641 C-1.11501915 2.23003831 -1.11501915 2.23003831 0 0 Z " fill="#F5F3F4" transform="translate(211,66)"/>
<path d="M0 0 C7.92 0 15.84 0 24 0 C24 2.64 24 5.28 24 8 C19.05 8 14.1 8 9 8 C9 13.61 9 19.22 9 25 C13.29 25 17.58 25 22 25 C22 27.64 22 30.28 22 33 C17.71 33 13.42 33 9 33 C9 41.58 9 50.16 9 59 C6.03 59 3.06 59 0 59 C0 39.53 0 20.06 0 0 Z " fill="#FBFAFA" transform="translate(207,124)"/>
<path d="M0 0 C9.24 0 18.48 0 28 0 C28 2.64 28 5.28 28 8 C25.03 8 22.06 8 19 8 C19 25.16 19 42.32 19 60 C16.03 60 13.06 60 10 60 C10 42.84 10 25.68 10 8 C6.7 8 3.4 8 0 8 C0 5.36 0 2.72 0 0 Z " fill="#F6F4F5" transform="translate(237,124)"/>
<path d="M0 0 C3.40081958 1.13360653 3.58907246 1.51229755 5.2265625 4.4921875 C5.6184375 5.19730469 6.0103125 5.90242187 6.4140625 6.62890625 C6.81367188 7.37011719 7.21328125 8.11132812 7.625 8.875 C8.03234375 9.60847656 8.4396875 10.34195313 8.859375 11.09765625 C10.48898911 14.06010044 11.92748529 16.78245588 13 20 C10.69 20 8.38 20 6 20 C6 32.87 6 45.74 6 59 C3.03 59 0.06 59 -3 59 C-3 46.13 -3 33.26 -3 20 C-5.64 20 -8.28 20 -11 20 C-7.36433437 13.31587248 -3.70775764 6.64443293 0 0 Z " fill="#F5D05E" transform="translate(191,125)"/>
<path d="M0 0 C6.6 0 13.2 0 20 0 C20 1.98 20 3.96 20 6 C15.71 6 11.42 6 7 6 C7 10.95 7 15.9 7 21 C10.63 21 14.26 21 18 21 C18 22.98 18 24.96 18 27 C14.37 27 10.74 27 7 27 C7 32.28 7 37.56 7 43 C11.29 43 15.58 43 20 43 C20 44.98 20 46.96 20 49 C13.4 49 6.8 49 0 49 C0 32.83 0 16.66 0 0 Z " fill="#FEFEFE" transform="translate(175,66)"/>
<path d="M0 0 C2.64 0 5.28 0 8 0 C10.49742403 2.49742403 10.23676464 3.97717611 10.25224304 7.38478088 C10.24505753 8.11502975 10.23787201 8.84527863 10.23046875 9.59765625 C10.22978142 10.72185219 10.22978142 10.72185219 10.2290802 11.86875916 C10.22605811 13.45329369 10.21817306 15.03782526 10.20581055 16.62231445 C10.18754683 19.05625858 10.18530089 21.48982262 10.18554688 23.92382812 C10.18063201 25.46094081 10.17480382 26.9980509 10.16796875 28.53515625 C10.16685593 29.26742935 10.1657431 29.99970245 10.16459656 30.75416565 C10.11605238 35.88394762 10.11605238 35.88394762 9 37 C6.03 37 3.06 37 0 37 C0 24.79 0 12.58 0 0 Z " fill="#331C28" transform="translate(116,72)"/>
<path d="M0 0 C1.26808046 2.53616092 0.71481776 4.11479873 0.27786255 6.83425903 C-0.28064262 11.18740963 -0.24255547 15.58156965 -0.31640625 19.96484375 C-0.33718735 20.99815323 -0.35796844 22.03146271 -0.37937927 23.09608459 C-0.44443478 26.37649284 -0.50355404 29.65697685 -0.5625 32.9375 C-0.60572711 35.16992951 -0.64934271 37.40235154 -0.69335938 39.63476562 C-0.80007071 45.08976511 -0.90191644 50.54483892 -1 56 C1.31 56 3.62 56 6 56 C6 39.17 6 22.34 6 5 C8.38681675 7.38681675 9.94223816 9.2585508 11.6875 12.0625 C12.34298828 13.10083984 12.34298828 13.10083984 13.01171875 14.16015625 C14 16 14 16 14 18 C11.69 18 9.38 18 7 18 C7 30.87 7 43.74 7 57 C4.03 57 1.06 57 -2 57 C-2 44.13 -2 31.26 -2 18 C-4.64 18 -7.28 18 -10 18 C-6.72591106 11.96476272 -3.43506486 5.94530457 0 0 Z " fill="#F1C94E" transform="translate(190,127)"/>
<path d="M0 0 C2.38681675 2.38681675 3.94223816 4.2585508 5.6875 7.0625 C6.34298828 8.10083984 6.34298828 8.10083984 7.01171875 9.16015625 C8 11 8 11 8 13 C5.69 13 3.38 13 1 13 C1 25.87 1 38.74 1 52 C-1.97 52 -4.94 52 -8 52 C-8 51.67 -8 51.34 -8 51 C-5.36 51 -2.72 51 0 51 C0 34.17 0 17.34 0 0 Z " fill="#D1A83D" transform="translate(196,132)"/>
<path d="M0 0 C0.66 0 1.32 0 2 0 C4.29612756 13.6332574 4.29612756 13.6332574 4 20 C1.69 20 -0.62 20 -3 20 C-2.69055299 17.41626766 -2.37756043 14.83304867 -2.0625 12.25 C-1.97548828 11.52039063 -1.88847656 10.79078125 -1.79882812 10.0390625 C-1.37972591 6.62415558 -0.882726 3.32396457 0 0 Z " fill="#4F3543" transform="translate(214,80)"/>
<path d="M0 0 C1.00496852 3.01490557 1.10335303 5.04181692 1.0625 8.1875 C1.05347656 9.08855469 1.04445312 9.98960937 1.03515625 10.91796875 C1.02355469 11.60503906 1.01195312 12.29210937 1 13 C-1.64 13 -4.28 13 -7 13 C-6.57847656 12.22914063 -6.15695313 11.45828125 -5.72265625 10.6640625 C-5.17480469 9.66117188 -4.62695312 8.65828125 -4.0625 7.625 C-3.51722656 6.62726563 -2.97195312 5.62953125 -2.41015625 4.6015625 C-1.5850241 3.07929654 -0.77435609 1.54871217 0 0 Z " fill="#EEBF36" transform="translate(187,132)"/>
<path d="M0 0 C0.66 0.33 1.32 0.66 2 1 C0.27538679 2.92093521 -1.45442609 4.836722 -3.1875 6.75 C-3.67025391 7.28882813 -4.15300781 7.82765625 -4.65039062 8.3828125 C-7.56162205 11.58712091 -10.52706501 14.3841879 -14 17 C-14 14 -14 14 -12.71484375 12.37426758 C-12.12832031 11.80345459 -11.54179688 11.2326416 -10.9375 10.64453125 C-10.30585937 10.02255859 -9.67421875 9.40058594 -9.0234375 8.75976562 C-8.35570313 8.11716797 -7.68796875 7.47457031 -7 6.8125 C-6.33226563 6.15830078 -5.66453125 5.50410156 -4.9765625 4.83007812 C-3.32421559 3.21313865 -1.66528399 1.60359509 0 0 Z " fill="#F4D46D" transform="translate(106,28)"/>
<path d="M0 0 C0.66 0 1.32 0 2 0 C5 4.38461538 5 4.38461538 5 7 C2.69 7 0.38 7 -2 7 C-1.34 6.67 -0.68 6.34 0 6 C0 4.02 0 2.04 0 0 Z " fill="#DBAA23" transform="translate(199,138)"/>
<path d="M0 0 C1.04449911 3.13349732 0.93423645 3.98968256 0 7 C1.32 7.33 2.64 7.66 4 8 C1.36 8 -1.28 8 -4 8 C-2.68 5.36 -1.36 2.72 0 0 Z " fill="#D5A423" transform="translate(184,137)"/>
</svg>
